<svg xmlns="http://www.w3.org/2000/svg" xmlns:xlink="http://www.w3.org/1999/xlink" width="500" zoomAndPan="magnify" viewBox="0 0 375 374.999991" height="500" preserveAspectRatio="xMidYMid meet" version="1.0"><path fill="#8cc84b" d="M 188.648438 174.007812 C 187.953125 173.617188 187.039062 173.617188 186.339844 174.007812 C 182.839844 175.941406 179.335938 177.875 175.832031 179.808594 C 175.152344 180.164062 174.691406 180.898438 174.699219 181.65625 L 174.699219 193.335938 C 174.695312 194.109375 175.175781 194.847656 175.875 195.203125 C 176.882812 195.738281 177.859375 196.328125 178.886719 196.828125 C 180.066406 197.410156 181.546875 197.539062 182.746094 196.929688 C 183.71875 196.429688 184.152344 195.3125 184.148438 194.285156 C 184.15625 190.429688 184.152344 186.574219 184.152344 182.722656 C 184.175781 182.550781 184.046875 182.367188 183.859375 182.371094 C 183.414062 182.363281 182.964844 182.367188 182.515625 182.371094 C 182.347656 182.355469 182.183594 182.496094 182.195312 182.664062 C 182.1875 186.492188 182.195312 190.324219 182.191406 194.152344 C 182.199219 194.683594 181.84375 195.191406 181.332031 195.371094 C 180.152344 195.785156 176.789062 193.601562 176.789062 193.601562 C 176.664062 193.542969 176.585938 193.410156 176.597656 193.277344 C 176.597656 189.421875 176.597656 185.570312 176.597656 181.71875 C 176.582031 181.5625 176.675781 181.421875 176.820312 181.359375 C 180.308594 179.4375 183.800781 177.511719 187.289062 175.589844 C 187.410156 175.507812 187.582031 175.507812 187.703125 175.589844 C 191.191406 177.511719 194.683594 179.433594 198.171875 181.355469 C 198.316406 181.421875 198.40625 181.5625 198.394531 181.71875 C 198.394531 185.570312 198.394531 189.421875 198.390625 193.273438 C 198.402344 193.410156 198.332031 193.542969 198.203125 193.605469 C 194.746094 195.515625 191.25 197.363281 187.820312 199.332031 C 187.671875 199.417969 187.503906 199.511719 187.335938 199.417969 C 186.433594 198.921875 185.542969 198.402344 184.644531 197.898438 C 184.546875 197.839844 184.425781 197.8125 184.320312 197.878906 C 183.917969 198.09375 183.539062 198.265625 183.078125 198.449219 C 182.429688 198.703125 182.53125 198.808594 183.117188 199.152344 C 184.167969 199.746094 185.222656 200.335938 186.269531 200.933594 C 186.960938 201.363281 187.890625 201.394531 188.605469 200.996094 C 192.109375 199.066406 195.609375 197.132812 199.113281 195.203125 C 199.8125 194.847656 200.296875 194.109375 200.292969 193.335938 L 200.292969 181.65625 C 200.300781 180.914062 199.855469 180.195312 199.195312 179.828125 C 195.679688 177.886719 192.164062 175.949219 188.648438 174.007812 Z M 188.648438 174.007812 " fill-opacity="1" fill-rule="nonzero"/><path fill="#8cc84b" d="M 193.933594 182.777344 C 192.558594 182.042969 190.925781 182.003906 189.398438 182.097656 C 188.292969 182.207031 187.132812 182.511719 186.328125 183.304688 C 185.503906 184.097656 185.324219 185.382812 185.714844 186.421875 C 185.996094 187.15625 186.703125 187.632812 187.433594 187.882812 C 188.375 188.21875 189.363281 188.320312 190.351562 188.421875 C 191.253906 188.515625 192.15625 188.609375 193.023438 188.878906 C 193.378906 188.996094 193.792969 189.175781 193.898438 189.558594 C 194 190.015625 193.890625 190.546875 193.519531 190.863281 C 192.34375 191.796875 189.070312 191.652344 187.90625 190.917969 C 187.4375 190.605469 187.234375 190.054688 187.152344 189.527344 C 187.140625 189.363281 187.007812 189.210938 186.832031 189.226562 C 186.382812 189.21875 185.9375 189.222656 185.492188 189.226562 C 185.335938 189.210938 185.175781 189.324219 185.164062 189.480469 C 185.074219 191.894531 187.289062 192.945312 189.371094 193.179688 C 190.558594 193.292969 191.773438 193.285156 192.941406 193.03125 C 193.820312 192.828125 194.703125 192.460938 195.308594 191.785156 C 196.054688 190.960938 196.203125 189.734375 195.867188 188.710938 C 195.609375 187.945312 194.878906 187.453125 194.132812 187.203125 C 193.113281 186.851562 191.910156 186.664062 190.988281 186.578125 C 189.652344 186.449219 188.058594 186.503906 187.679688 185.621094 C 187.53125 185.160156 187.660156 184.589844 188.082031 184.304688 C 189.203125 183.546875 191.480469 183.648438 192.640625 184.214844 C 193.171875 184.480469 193.480469 185.03125 193.609375 185.582031 C 193.632812 185.746094 193.742188 185.914062 193.929688 185.90625 C 194.375 185.917969 194.816406 185.910156 195.261719 185.910156 C 195.414062 185.921875 195.578125 185.835938 195.609375 185.679688 C 195.589844 184.523438 195 183.339844 193.933594 182.777344 Z M 193.933594 182.777344 " fill-opacity="1" fill-rule="nonzero"/></svg>